<svg xmlns="http://www.w3.org/2000/svg" viewBox="0 0 180 180" fill="none">
  <rect width="180" height="180" fill="#f6f4ef"/>
  <g transform="translate(90 92)">
    <g transform="scale(3.6) translate(-16 -15.5)">
      <path
        d="M6 18h20l-2-5.5a2 2 0 0 0-1.9-1.3H9.9A2 2 0 0 0 8 11.5L6 18Z"
        fill="#1c2b4a"
      />
      <path d="M10 11h12l1.8 4H8.2L10 11Z" fill="#2d4a73"/>
      <path
        d="M11.5 12.2h4.2l1 2.8h-5.4l.2-2.8Zm7 0h2.8l1 2.8h-3.8V12.2Z"
        fill="#f6f4ef"
      />
      <circle cx="10.5" cy="18.5" r="2.2" fill="#1c2b4a"/>
      <circle cx="21.5" cy="18.5" r="2.2" fill="#1c2b4a"/>
      <circle cx="10.5" cy="18.5" r="1" fill="#f6f4ef"/>
      <circle cx="21.5" cy="18.5" r="1" fill="#f6f4ef"/>
      <path d="M5 20.5h22" stroke="#1c2b4a" stroke-width="1.2" stroke-linecap="round"/>
    </g>
  </g>
</svg>
